<svg xmlns="http://www.w3.org/2000/svg" xmlns:xlink="http://www.w3.org/1999/xlink" width="785" zoomAndPan="magnify" viewBox="0 0 588.75 163.5" height="218" preserveAspectRatio="xMidYMid meet" version="1.0"><defs><g/><clipPath id="f532d9dcb2"><path d="M 569.242188 105.632812 L 582.933594 105.632812 L 582.933594 119.902344 L 569.242188 119.902344 Z M 569.242188 105.632812 " clip-rule="nonzero"/></clipPath></defs><g clip-path="url(#f532d9dcb2)"><path fill="#f13024" d="M 569.242188 105.632812 L 582.933594 105.632812 L 582.933594 119.914062 L 569.242188 119.914062 Z M 569.242188 105.632812 " fill-opacity="1" fill-rule="nonzero"/></g><g fill="#ffffff" fill-opacity="1"><g transform="translate(22.655892, 117.341132)"><g><path d="M 38.984375 0 C 38.242188 -1.457031 37.34375 -3.082031 36.28125 -4.875 C 35.21875 -6.675781 34.054688 -8.523438 32.796875 -10.421875 C 31.535156 -12.316406 30.238281 -14.191406 28.90625 -16.046875 C 27.582031 -17.910156 26.285156 -19.671875 25.015625 -21.328125 C 23.753906 -19.671875 22.457031 -17.894531 21.125 -16 C 19.800781 -14.101562 18.523438 -12.207031 17.296875 -10.3125 C 16.066406 -8.425781 14.921875 -6.582031 13.859375 -4.78125 C 12.796875 -2.988281 11.898438 -1.394531 11.171875 0 L 1.59375 0 C 3.914062 -4.519531 6.6875 -9.117188 9.90625 -13.796875 C 13.132812 -18.484375 16.34375 -22.957031 19.53125 -27.21875 L 2.390625 -51.84375 L 12.859375 -51.84375 L 25.21875 -33.6875 L 37.6875 -51.84375 L 47.546875 -51.84375 L 30.796875 -27.8125 C 33.992188 -23.488281 37.269531 -18.914062 40.625 -14.09375 C 43.976562 -9.28125 46.816406 -4.582031 49.140625 0 Z M 38.984375 0 "/></g></g></g><g fill="#ffffff" fill-opacity="1"><g transform="translate(73.598137, 117.341132)"><g><path d="M 25.515625 -6.671875 C 27.710938 -6.671875 29.65625 -6.722656 31.34375 -6.828125 C 33.039062 -6.929688 34.457031 -7.113281 35.59375 -7.375 L 35.59375 -22.828125 C 34.925781 -23.160156 33.84375 -23.441406 32.34375 -23.671875 C 30.851562 -23.910156 29.046875 -24.03125 26.921875 -24.03125 C 25.523438 -24.03125 24.046875 -23.925781 22.484375 -23.71875 C 20.921875 -23.519531 19.488281 -23.101562 18.1875 -22.46875 C 16.894531 -21.84375 15.816406 -20.984375 14.953125 -19.890625 C 14.085938 -18.796875 13.65625 -17.347656 13.65625 -15.546875 C 13.65625 -12.222656 14.71875 -9.910156 16.84375 -8.609375 C 18.96875 -7.316406 21.859375 -6.671875 25.515625 -6.671875 Z M 24.71875 -53.140625 C 28.445312 -53.140625 31.585938 -52.65625 34.140625 -51.6875 C 36.703125 -50.726562 38.765625 -49.363281 40.328125 -47.59375 C 41.890625 -45.832031 43 -43.738281 43.65625 -41.3125 C 44.320312 -38.894531 44.65625 -36.222656 44.65625 -33.296875 L 44.65625 -0.890625 C 43.863281 -0.765625 42.75 -0.582031 41.3125 -0.34375 C 39.882812 -0.113281 38.273438 0.0976562 36.484375 0.296875 C 34.691406 0.492188 32.75 0.675781 30.65625 0.84375 C 28.5625 1.007812 26.484375 1.09375 24.421875 1.09375 C 21.492188 1.09375 18.800781 0.789062 16.34375 0.1875 C 13.882812 -0.40625 11.757812 -1.347656 9.96875 -2.640625 C 8.175781 -3.929688 6.78125 -5.640625 5.78125 -7.765625 C 4.78125 -9.898438 4.28125 -12.460938 4.28125 -15.453125 C 4.28125 -18.304688 4.863281 -20.765625 6.03125 -22.828125 C 7.195312 -24.890625 8.773438 -26.550781 10.765625 -27.8125 C 12.753906 -29.070312 15.078125 -30 17.734375 -30.59375 C 20.398438 -31.195312 23.195312 -31.5 26.125 -31.5 C 27.050781 -31.5 28.007812 -31.445312 29 -31.34375 C 30 -31.25 30.945312 -31.117188 31.84375 -30.953125 C 32.75 -30.785156 33.53125 -30.632812 34.1875 -30.5 C 34.851562 -30.375 35.320312 -30.273438 35.59375 -30.203125 L 35.59375 -32.796875 C 35.59375 -34.328125 35.425781 -35.835938 35.09375 -37.328125 C 34.757812 -38.828125 34.160156 -40.15625 33.296875 -41.3125 C 32.429688 -42.476562 31.25 -43.410156 29.75 -44.109375 C 28.257812 -44.804688 26.316406 -45.15625 23.921875 -45.15625 C 20.867188 -45.15625 18.195312 -44.9375 15.90625 -44.5 C 13.613281 -44.070312 11.898438 -43.628906 10.765625 -43.171875 L 9.671875 -50.84375 C 10.867188 -51.375 12.863281 -51.890625 15.65625 -52.390625 C 18.445312 -52.890625 21.46875 -53.140625 24.71875 -53.140625 Z M 24.71875 -53.140625 "/></g></g></g><g fill="#ffffff" fill-opacity="1"><g transform="translate(125.636988, 117.341132)"><g><path d="M 48.453125 -51.84375 C 45.859375 -42.132812 42.816406 -32.828125 39.328125 -23.921875 C 35.835938 -15.015625 32.460938 -7.039062 29.203125 0 L 20.828125 0 C 17.578125 -7.039062 14.207031 -15.015625 10.71875 -23.921875 C 7.226562 -32.828125 4.1875 -42.132812 1.59375 -51.84375 L 11.5625 -51.84375 C 12.363281 -48.582031 13.3125 -45.109375 14.40625 -41.421875 C 15.5 -37.734375 16.660156 -34.078125 17.890625 -30.453125 C 19.117188 -26.828125 20.363281 -23.320312 21.625 -19.9375 C 22.894531 -16.550781 24.09375 -13.523438 25.21875 -10.859375 C 26.351562 -13.523438 27.550781 -16.550781 28.8125 -19.9375 C 30.070312 -23.320312 31.316406 -26.828125 32.546875 -30.453125 C 33.773438 -34.078125 34.9375 -37.734375 36.03125 -41.421875 C 37.132812 -45.109375 38.082031 -48.582031 38.875 -51.84375 Z M 48.453125 -51.84375 "/></g></g></g><g fill="#ffffff" fill-opacity="1"><g transform="translate(175.682014, 117.341132)"><g><path d="M 17.25 0 L 7.96875 0 L 7.96875 -51.84375 L 17.25 -51.84375 Z M 12.5625 -61.203125 C 10.894531 -61.203125 9.476562 -61.75 8.3125 -62.84375 C 7.15625 -63.945312 6.578125 -65.429688 6.578125 -67.296875 C 6.578125 -69.148438 7.15625 -70.625 8.3125 -71.71875 C 9.476562 -72.820312 10.894531 -73.375 12.5625 -73.375 C 14.21875 -73.375 15.628906 -72.820312 16.796875 -71.71875 C 17.960938 -70.625 18.546875 -69.148438 18.546875 -67.296875 C 18.546875 -65.429688 17.960938 -63.945312 16.796875 -62.84375 C 15.628906 -61.75 14.21875 -61.203125 12.5625 -61.203125 Z M 12.5625 -61.203125 "/></g></g></g><g fill="#ffffff" fill-opacity="1"><g transform="translate(200.903913, 117.341132)"><g><path d="M 5.078125 -25.8125 C 5.078125 -30.40625 5.742188 -34.410156 7.078125 -37.828125 C 8.410156 -41.253906 10.171875 -44.097656 12.359375 -46.359375 C 14.554688 -48.617188 17.082031 -50.3125 19.9375 -51.4375 C 22.789062 -52.570312 25.710938 -53.140625 28.703125 -53.140625 C 35.679688 -53.140625 41.03125 -50.960938 44.75 -46.609375 C 48.476562 -42.253906 50.34375 -35.625 50.34375 -26.71875 C 50.34375 -26.320312 50.34375 -25.804688 50.34375 -25.171875 C 50.34375 -24.535156 50.3125 -23.953125 50.25 -23.421875 L 14.75 -23.421875 C 15.15625 -18.046875 16.71875 -13.960938 19.4375 -11.171875 C 22.164062 -8.378906 26.421875 -6.984375 32.203125 -6.984375 C 35.453125 -6.984375 38.191406 -7.265625 40.421875 -7.828125 C 42.648438 -8.390625 44.328125 -8.9375 45.453125 -9.46875 L 46.75 -1.6875 C 45.625 -1.09375 43.644531 -0.460938 40.8125 0.203125 C 37.988281 0.867188 34.785156 1.203125 31.203125 1.203125 C 26.679688 1.203125 22.773438 0.519531 19.484375 -0.84375 C 16.191406 -2.207031 13.484375 -4.082031 11.359375 -6.46875 C 9.234375 -8.863281 7.65625 -11.707031 6.625 -15 C 5.59375 -18.289062 5.078125 -21.894531 5.078125 -25.8125 Z M 40.671875 -30.90625 C 40.734375 -35.09375 39.6875 -38.53125 37.53125 -41.21875 C 35.375 -43.914062 32.398438 -45.265625 28.609375 -45.265625 C 26.484375 -45.265625 24.601562 -44.847656 22.96875 -44.015625 C 21.34375 -43.179688 19.960938 -42.097656 18.828125 -40.765625 C 17.703125 -39.441406 16.820312 -37.914062 16.1875 -36.1875 C 15.5625 -34.457031 15.148438 -32.695312 14.953125 -30.90625 Z M 40.671875 -30.90625 "/></g></g></g><g fill="#ffffff" fill-opacity="1"><g transform="translate(256.631325, 117.341132)"><g><path d="M 27.109375 -52.9375 C 27.910156 -52.9375 28.828125 -52.882812 29.859375 -52.78125 C 30.890625 -52.6875 31.898438 -52.554688 32.890625 -52.390625 C 33.890625 -52.222656 34.804688 -52.054688 35.640625 -51.890625 C 36.472656 -51.722656 37.085938 -51.570312 37.484375 -51.4375 L 35.890625 -43.359375 C 35.160156 -43.628906 33.945312 -43.945312 32.25 -44.3125 C 30.550781 -44.675781 28.375 -44.859375 25.71875 -44.859375 C 23.988281 -44.859375 22.273438 -44.675781 20.578125 -44.3125 C 18.890625 -43.945312 17.78125 -43.695312 17.25 -43.5625 L 17.25 0 L 7.96875 0 L 7.96875 -49.640625 C 10.164062 -50.441406 12.890625 -51.191406 16.140625 -51.890625 C 19.398438 -52.585938 23.054688 -52.9375 27.109375 -52.9375 Z M 27.109375 -52.9375 "/></g></g></g><g fill="#ffffff" fill-opacity="1"><g transform="translate(295.112165, 117.341132)"><g/></g></g><g fill="#ffffff" fill-opacity="1"><g transform="translate(318.14084, 117.341132)"><g><path d="M 23.53125 1 C 17.8125 0.863281 13.753906 -0.363281 11.359375 -2.6875 C 8.972656 -5.019531 7.78125 -8.644531 7.78125 -13.5625 L 7.78125 -75.765625 L 17.046875 -77.359375 L 17.046875 -15.046875 C 17.046875 -13.523438 17.175781 -12.265625 17.4375 -11.265625 C 17.707031 -10.265625 18.140625 -9.460938 18.734375 -8.859375 C 19.335938 -8.265625 20.132812 -7.816406 21.125 -7.515625 C 22.125 -7.222656 23.359375 -6.976562 24.828125 -6.78125 Z M 23.53125 1 "/></g></g></g><g fill="#ffffff" fill-opacity="1"><g transform="translate(345.356578, 117.341132)"><g><path d="M 53.734375 -25.921875 C 53.734375 -21.796875 53.132812 -18.070312 51.9375 -14.75 C 50.738281 -11.425781 49.054688 -8.566406 46.890625 -6.171875 C 44.734375 -3.785156 42.160156 -1.941406 39.171875 -0.640625 C 36.179688 0.648438 32.925781 1.296875 29.40625 1.296875 C 25.882812 1.296875 22.628906 0.648438 19.640625 -0.640625 C 16.648438 -1.941406 14.070312 -3.785156 11.90625 -6.171875 C 9.75 -8.566406 8.070312 -11.425781 6.875 -14.75 C 5.675781 -18.070312 5.078125 -21.796875 5.078125 -25.921875 C 5.078125 -29.972656 5.675781 -33.675781 6.875 -37.03125 C 8.070312 -40.382812 9.75 -43.257812 11.90625 -45.65625 C 14.070312 -48.050781 16.648438 -49.894531 19.640625 -51.1875 C 22.628906 -52.488281 25.882812 -53.140625 29.40625 -53.140625 C 32.925781 -53.140625 36.179688 -52.488281 39.171875 -51.1875 C 42.160156 -49.894531 44.734375 -48.050781 46.890625 -45.65625 C 49.054688 -43.257812 50.738281 -40.382812 51.9375 -37.03125 C 53.132812 -33.675781 53.734375 -29.972656 53.734375 -25.921875 Z M 44.0625 -25.921875 C 44.0625 -31.765625 42.75 -36.394531 40.125 -39.8125 C 37.5 -43.238281 33.925781 -44.953125 29.40625 -44.953125 C 24.882812 -44.953125 21.3125 -43.238281 18.6875 -39.8125 C 16.0625 -36.394531 14.75 -31.765625 14.75 -25.921875 C 14.75 -20.066406 16.0625 -15.425781 18.6875 -12 C 21.3125 -8.582031 24.882812 -6.875 29.40625 -6.875 C 33.925781 -6.875 37.5 -8.582031 40.125 -12 C 42.75 -15.425781 44.0625 -20.066406 44.0625 -25.921875 Z M 41.46875 -71.46875 L 27.40625 -57.8125 L 22.71875 -62 L 35.484375 -77.359375 Z M 41.46875 -71.46875 "/></g></g></g><g fill="#ffffff" fill-opacity="1"><g transform="translate(404.174435, 117.341132)"><g><path d="M 43.96875 -25.8125 C 43.96875 -31.863281 42.46875 -36.515625 39.46875 -39.765625 C 36.476562 -43.023438 32.492188 -44.65625 27.515625 -44.65625 C 24.722656 -44.65625 22.546875 -44.554688 20.984375 -44.359375 C 19.421875 -44.160156 18.175781 -43.925781 17.25 -43.65625 L 17.25 -10.96875 C 18.375 -10.03125 20 -9.128906 22.125 -8.265625 C 24.257812 -7.410156 26.585938 -6.984375 29.109375 -6.984375 C 31.765625 -6.984375 34.039062 -7.460938 35.9375 -8.421875 C 37.832031 -9.390625 39.378906 -10.71875 40.578125 -12.40625 C 41.773438 -14.101562 42.640625 -16.097656 43.171875 -18.390625 C 43.703125 -20.679688 43.96875 -23.15625 43.96875 -25.8125 Z M 53.625 -25.8125 C 53.625 -21.894531 53.109375 -18.273438 52.078125 -14.953125 C 51.054688 -11.628906 49.546875 -8.769531 47.546875 -6.375 C 45.554688 -3.988281 43.113281 -2.128906 40.21875 -0.796875 C 37.332031 0.535156 34.03125 1.203125 30.3125 1.203125 C 27.3125 1.203125 24.664062 0.800781 22.375 0 C 20.082031 -0.800781 18.375 -1.566406 17.25 -2.296875 L 17.25 18.4375 L 7.96875 18.4375 L 7.96875 -50.25 C 10.164062 -50.78125 12.910156 -51.359375 16.203125 -51.984375 C 19.492188 -52.617188 23.296875 -52.9375 27.609375 -52.9375 C 31.597656 -52.9375 35.1875 -52.300781 38.375 -51.03125 C 41.570312 -49.769531 44.296875 -47.976562 46.546875 -45.65625 C 48.804688 -43.332031 50.550781 -40.488281 51.78125 -37.125 C 53.007812 -33.769531 53.625 -30 53.625 -25.8125 Z M 53.625 -25.8125 "/></g></g></g><g fill="#ffffff" fill-opacity="1"><g transform="translate(462.89262, 117.341132)"><g><path d="M 5.078125 -25.8125 C 5.078125 -30.40625 5.742188 -34.410156 7.078125 -37.828125 C 8.410156 -41.253906 10.171875 -44.097656 12.359375 -46.359375 C 14.554688 -48.617188 17.082031 -50.3125 19.9375 -51.4375 C 22.789062 -52.570312 25.710938 -53.140625 28.703125 -53.140625 C 35.679688 -53.140625 41.03125 -50.960938 44.75 -46.609375 C 48.476562 -42.253906 50.34375 -35.625 50.34375 -26.71875 C 50.34375 -26.320312 50.34375 -25.804688 50.34375 -25.171875 C 50.34375 -24.535156 50.3125 -23.953125 50.25 -23.421875 L 14.75 -23.421875 C 15.15625 -18.046875 16.71875 -13.960938 19.4375 -11.171875 C 22.164062 -8.378906 26.421875 -6.984375 32.203125 -6.984375 C 35.453125 -6.984375 38.191406 -7.265625 40.421875 -7.828125 C 42.648438 -8.390625 44.328125 -8.9375 45.453125 -9.46875 L 46.75 -1.6875 C 45.625 -1.09375 43.644531 -0.460938 40.8125 0.203125 C 37.988281 0.867188 34.785156 1.203125 31.203125 1.203125 C 26.679688 1.203125 22.773438 0.519531 19.484375 -0.84375 C 16.191406 -2.207031 13.484375 -4.082031 11.359375 -6.46875 C 9.234375 -8.863281 7.65625 -11.707031 6.625 -15 C 5.59375 -18.289062 5.078125 -21.894531 5.078125 -25.8125 Z M 40.671875 -30.90625 C 40.734375 -35.09375 39.6875 -38.53125 37.53125 -41.21875 C 35.375 -43.914062 32.398438 -45.265625 28.609375 -45.265625 C 26.484375 -45.265625 24.601562 -44.847656 22.96875 -44.015625 C 21.34375 -43.179688 19.960938 -42.097656 18.828125 -40.765625 C 17.703125 -39.441406 16.820312 -37.914062 16.1875 -36.1875 C 15.5625 -34.457031 15.148438 -32.695312 14.953125 -30.90625 Z M 40.671875 -30.90625 "/></g></g></g><g fill="#ffffff" fill-opacity="1"><g transform="translate(518.620044, 117.341132)"><g><path d="M 42.375 -44.859375 C 40.976562 -43.328125 39.128906 -41.164062 36.828125 -38.375 C 34.535156 -35.582031 32.078125 -32.492188 29.453125 -29.109375 C 26.828125 -25.722656 24.203125 -22.164062 21.578125 -18.4375 C 18.953125 -14.71875 16.644531 -11.164062 14.65625 -7.78125 L 43.171875 -7.78125 L 43.171875 0 L 3.59375 0 L 3.59375 -6.1875 C 5.1875 -9.101562 7.144531 -12.320312 9.46875 -15.84375 C 11.789062 -19.375 14.234375 -22.878906 16.796875 -26.359375 C 19.359375 -29.847656 21.847656 -33.140625 24.265625 -36.234375 C 26.691406 -39.328125 28.804688 -41.9375 30.609375 -44.0625 L 4.984375 -44.0625 L 4.984375 -51.84375 L 42.375 -51.84375 Z M 42.375 -44.859375 "/></g></g></g></svg>